<svg version="1.1" xmlns="http://www.w3.org/2000/svg" style="display: block;" viewBox="0 0 2048 2048" width="1024" height="1024" preserveAspectRatio="none">
<path transform="translate(0,0)" fill="rgb(3,98,166)" d="M 476.954 1445.32 C 453.957 1419.83 418.503 1360.91 403.113 1330.18 C 320.748 1166.43 307.726 976.424 366.978 802.966 C 423.945 632.276 557.255 482.757 717.928 402.614 C 881.982 321.083 1071.79 308.402 1245.23 367.385 C 1382.74 414.394 1502.07 503.295 1586.47 621.602 C 1597.36 636.928 1617.58 666.415 1625.8 682.997 C 1621.62 688.342 1608.62 701.19 1603.59 705.785 C 1591.09 683.855 1579.63 664.976 1564.92 644.289 C 1497.21 549.041 1404.31 469.59 1297.51 421.522 C 1287.36 416.957 1256.57 403.349 1246.27 401.605 C 1259.8 412.566 1268.89 411.718 1286.83 428.468 C 1277.58 427.028 1268.09 425.322 1258.75 425.031 L 1269.11 432.577 L 1262.38 446.886 C 1249.28 437.736 1236.4 429.583 1221.11 424.337 C 1217.37 425.282 1202.32 428.031 1200.94 428.884 C 1202.31 432.877 1210.5 437.53 1214.41 440.078 C 1220.73 461.994 1219.3 462.25 1239.9 474.626 C 1238.35 478.227 1236.26 481.608 1237.18 485.231 C 1239.64 488.046 1240.39 488.305 1243.53 490.137 C 1243.52 493.686 1243.87 494.95 1241.83 497.844 C 1238.9 499.331 1236.79 500.115 1234.53 502.517 L 1230.95 507.632 C 1227.08 505.285 1221.63 501.581 1216.98 501.956 L 1215.9 503.38 C 1217.33 510.999 1233.55 532.049 1240.27 536.915 C 1245.78 540.908 1260.98 547.23 1263.6 554.651 C 1259.91 555.157 1252.2 551.656 1247.52 550.648 C 1237.75 548.543 1230.34 548.58 1220.39 548.642 C 1223.9 552.735 1229.07 557.641 1228.96 563.005 C 1225.76 565.549 1220.81 563.477 1217.83 565.481 C 1214.12 567.967 1210.83 573.014 1206.44 574.471 C 1202.92 573.455 1201.11 570.28 1198.8 567.259 C 1195.47 570.88 1191.95 574.567 1189.07 578.58 C 1183.81 585.915 1183.46 598.072 1174.88 601.123 C 1168.79 600.178 1163.56 596.763 1164.95 590.632 C 1166.59 583.372 1156.81 581.349 1150.54 581.981 L 1149.69 582.877 C 1152.36 594.98 1165.97 602.787 1164.88 611.309 C 1161.05 613.743 1158.68 612.675 1153.98 611.639 C 1138.23 628.871 1151.45 632.759 1147.06 639.008 C 1139.47 641.046 1131.06 631.474 1126.84 636.487 L 1126.7 637.89 C 1129.29 644.367 1133.42 647.512 1136.96 653.299 C 1129.93 651.22 1124.48 650.024 1118.72 645.308 C 1111.34 640.546 1109.07 631.646 1105.9 623.375 C 1101.2 620.611 1097.82 619.163 1094.52 614.845 L 1095.12 613.821 C 1109.23 614.861 1125.27 625.158 1138.47 615.635 C 1144.77 611.094 1140.93 600.993 1136.13 596.707 C 1122.19 584.265 1100.91 580.576 1083.39 575.5 C 1077.78 573.873 1072.45 574.706 1066.89 572.111 C 1067.16 569.192 1067.19 569.61 1068.1 566.744 C 1066.65 563.749 1065.7 562.802 1062.03 561.615 C 1047.05 556.774 1037.48 559.59 1024.28 566.06 C 998.483 578.702 980.51 605.88 964.113 628.677 C 957.864 637.365 952.988 646.115 945.258 653.403 C 934.22 663.811 903.764 674.313 900.529 689.49 C 898.122 703.219 892.716 721.734 899.481 734.729 C 900.85 737.358 904.298 739.925 906.922 740.29 C 918.561 741.911 930.837 728.677 939.514 722.242 C 940.941 728.988 953.007 778.428 955.878 781.209 C 961.15 779.864 980.767 769.587 982.817 765.915 C 990.787 751.645 979.587 739.302 998.509 732.875 C 1001.94 726.79 1003.03 724.927 1005.26 718.223 C 998.722 709.017 991.141 700.563 992.956 688.21 C 995.023 674.139 1011.24 664.277 1020.18 655.221 C 1022.33 645.867 1023.47 637.449 1031.99 631.501 C 1040.9 625.282 1050.77 635.351 1045.35 644.159 C 1038.74 656.199 1027.29 665.645 1022.47 678.55 C 1025.11 689.732 1026.16 693.649 1026.1 705.318 C 1032.07 710.229 1033.48 711.113 1040.34 714.795 C 1049.75 712.637 1070.5 706.257 1078.21 705.456 C 1084.6 707.986 1085.72 708.64 1091.33 712.407 C 1086.9 714.876 1080.28 718.346 1076.16 721.032 C 1067.11 720.941 1051.3 721.306 1043.9 727.048 C 1039.17 737.387 1057.62 745.751 1049.45 756.803 C 1043.58 757.175 1035.09 745.786 1030.27 753.55 C 1015.36 777.561 1037.16 780.228 1008.46 798.988 C 1003.91 796.589 1002.31 795.477 998.211 792.349 C 983.796 794.852 974.929 801.176 961.892 804.609 C 957.989 802.359 954.099 800.087 950.223 797.791 C 946.546 798.717 938.61 801.119 935.264 800.733 C 930.595 792.939 923.647 792.075 922.705 783.991 C 924.284 777.685 928.697 774.562 933.514 770.236 C 932.263 762.425 931.798 757.438 931.362 749.516 C 925.232 752.987 917.793 756.794 912.692 761.462 L 912.28 762.902 C 911.038 767.37 910.704 768.399 910.459 773.081 C 910.119 779.582 915.215 800.118 909.188 803.577 C 902.899 807.186 888.246 805.144 882.229 809.726 C 862.174 824.998 869.134 829.926 843.012 839.7 C 834.972 853.676 833.23 852.064 818.54 859.605 L 804.522 854.693 C 804.314 858.87 803.979 863.498 803.971 867.641 C 796.944 866.04 783.503 862.843 776.537 864.774 L 774.905 866.865 C 777.389 875.339 787.779 880.807 792.397 887.498 C 795.467 891.946 799.533 902.593 801.661 907.872 C 799.816 915.969 795.673 937.509 790.188 940.481 C 775.308 948.542 732.178 917.506 719.372 934.21 C 714.215 958.463 715.958 970.44 702.407 992.001 C 705.403 1002.84 704.816 1006.35 703.62 1017.46 C 709.776 1018.91 715.916 1020.41 722.04 1021.99 C 727.739 1027.42 728.903 1030.18 733.518 1035.64 C 763.167 1028.42 771.133 1039.79 796.007 1012.67 C 797.105 980.373 811.37 987.797 828.112 973.857 C 846.32 958.696 825.555 942.103 868.811 954.38 C 875.508 952.505 884.234 947.979 890.05 944.386 C 910.478 931.762 911.985 953.725 920.055 966.009 C 932.549 984.329 960.083 994.744 970.425 1014.56 C 972.401 1018.41 969.666 1031.82 968.879 1036.7 C 974.846 1030.28 979.533 1024.91 984.794 1017.86 C 981.711 1013.85 978.438 1008.21 979.048 1002.98 C 984.346 997.623 992.882 1005.9 998.632 1004.72 C 996.331 993.186 977.66 994.672 971.553 980.52 C 969.201 979.539 961.428 976.989 960.037 975.66 C 953.545 969.457 948.06 958.903 942.985 952.003 C 933.12 938.589 928.924 916.252 953.522 926.475 C 956.371 927.659 961.584 927.204 964.897 927.002 C 968.806 918.12 970.04 917.106 977.833 911.513 C 984.276 915.392 995.053 923.7 1002.27 920.829 C 1026.01 911.395 1020.83 921.852 1035.87 938.122 C 1039.04 938.73 1043.39 939.095 1045.55 941.166 C 1047.25 952.244 1043.07 948.086 1048.73 960.063 C 1048.54 963.572 1046.08 966.792 1044.18 969.917 C 1057.22 986.704 1048.52 992.549 1028.85 992.909 C 1022.26 993.03 1024.55 974.07 1016.86 969.138 C 1013.24 968.981 1014.98 968.665 1011.53 970.505 C 1008.74 975.843 1010.78 994.566 1011.02 1002.03 C 1015.81 1010.17 1020.31 1015.05 1025.88 1022.4 C 1031.67 1030.04 1038.31 1060.5 1051.98 1054.46 L 1053.45 1052.3 C 1052.82 1049.71 1052.4 1048.43 1051.49 1045.91 C 1052.46 1041.16 1053.84 1041.31 1058.15 1039.25 L 1063.44 1029.37 C 1057.44 1021.41 1049.54 1013.13 1046.75 1003.64 L 1047.36 1001.89 C 1053.82 1001.43 1056.79 1004.71 1060.67 1003 C 1061.5 1000.05 1061.51 1000.14 1061.46 997.093 C 1069.12 988.052 1080.13 991.987 1089.78 994.6 C 1095.79 992.804 1105.71 987.373 1112.88 984.522 C 1115.82 985.097 1115.94 984.99 1118.73 986.048 C 1115.72 999.025 1098.81 996.388 1088.05 1002.71 C 1086.76 1009.07 1091.63 1015.26 1093.57 1021.74 C 1095.32 1027.63 1096.57 1032.67 1097.81 1038.66 C 1104.66 1045.55 1120.68 1053.39 1130.56 1054.58 C 1137.03 1055.36 1138.12 1046.4 1144.47 1047 C 1150.71 1046.92 1162.53 1054.69 1167.87 1052.87 C 1182.86 1047.78 1182.54 1043.37 1199.27 1042.25 C 1199.95 1065.43 1200.84 1073.53 1194.29 1096.05 C 1179.26 1096.68 1164.17 1097.3 1149.16 1098.07 C 1128.97 1099.1 1115.91 1102.47 1101.8 1117.92 C 1099.92 1119.98 1098.08 1122.08 1096.28 1124.21 C 1082.8 1122.95 1069.63 1119.38 1057.36 1113.64 C 1052.85 1111.58 1049.16 1109.15 1044.51 1107.45 C 995.969 1110.67 1037.33 1154.23 991.888 1134.24 C 983.853 1130.7 974.351 1128.02 966.896 1123.91 C 964.619 1120.33 961.991 1115.92 959.62 1112.5 C 939.087 1103.42 919.442 1106.68 903.264 1088.14 C 907.765 1082.13 909.814 1079.46 912.743 1072.26 C 911.019 1063.19 911.862 1051.62 907.53 1046.11 C 897.275 1040.47 813.05 1042.13 798.715 1046.91 C 778.217 1053.74 756.079 1063.68 734.25 1043.89 C 725.729 1043.26 723.333 1056.11 717.518 1061.17 C 708.903 1068.67 696.447 1070.2 689.881 1079.96 C 683.599 1089.26 684.454 1102.65 677.301 1111.21 C 671.266 1118.42 657.952 1122.65 650.805 1126.88 C 634.802 1136.35 612.465 1173.88 605.538 1191.01 C 613.971 1223.4 613.908 1229.64 602.131 1259.7 C 603.425 1265.94 607.094 1284.6 609.299 1289.58 C 612.833 1297.56 626.191 1313.43 632.103 1320.95 C 636.937 1327.11 646.187 1343.39 649.279 1346.87 C 658.504 1357.26 686.025 1384.79 696.619 1391.76 C 707.312 1392.19 718.398 1392.47 728.999 1393.78 C 740.714 1395.24 753.232 1399.57 765.001 1398.86 C 766.581 1398.76 770.271 1398.58 771.783 1398.65 C 701.669 1420.35 636.903 1440.41 562.345 1445.15 C 554.923 1445.62 537.362 1447.46 531.07 1446.6 C 526.449 1442.03 531.914 1423.68 531.603 1416.53 C 530.71 1396.02 517.449 1384.04 504.896 1369.61 C 492.792 1354.09 478.88 1340.31 465.031 1326.4 C 458.92 1320.27 451.54 1306.81 446.357 1301.85 C 426.99 1283.32 431.086 1267.75 422.936 1244.74 C 419.276 1234.41 413.73 1222.13 408.681 1212.24 C 404.731 1204.35 395.875 1192.85 393.504 1184.88 C 384.498 1154.61 377.011 1125.62 366.422 1095.69 C 364.586 1105.86 372.031 1140.33 374.198 1151.76 C 394.1 1256.72 447.142 1366.57 517.286 1447.03 C 505.371 1447.06 488.83 1446.29 476.954 1445.32 z M 413.92 767.061 C 410.929 774.604 405.306 787.647 403.678 795.119 C 407.384 789.071 413.389 776 417.718 768.444 C 423.327 759.464 429.918 754.827 436.924 747.253 C 442.638 741.076 445.125 733.118 453.419 730.297 C 457.135 729.033 461.512 726.13 465.547 727.628 C 465.779 730.923 457.134 738.953 453.772 743.821 L 452.978 744.989 C 465.019 742.77 483.436 742.972 484.709 728.067 C 482.122 727.761 481.936 728.748 479.082 730.806 L 477.515 730.046 C 471.734 713.786 491.281 701.856 494.726 688.975 C 493.929 685.2 494.873 686.717 491.659 684.357 C 486.936 683.325 482.374 684.872 477.508 685.944 C 494.023 675.669 496.2 666.447 509.481 686.512 C 517.766 686.641 523.736 686.129 531.793 684.511 C 522.011 697.008 509.974 705.527 499.264 717.275 C 500.697 726.841 504.129 743.048 507.973 751.63 C 521.688 730.879 519.609 721.456 526.834 699.476 C 528.867 693.292 544.592 678.221 548.508 669.502 C 554.903 655.259 557.838 642.128 563.381 627.725 C 572.574 611.036 586.763 593.011 597.475 575.96 C 592.797 578.989 581.654 586.92 576.644 584.402 C 576.876 575.164 613.219 549.173 608.536 527.706 C 598.891 527.714 533.288 602.772 519.752 604.655 L 519.305 602.972 C 523.625 594.272 533.23 586.266 538.449 577.455 C 531.308 582.132 522.763 593.602 517.498 600.41 C 476.995 644.338 438.605 712.748 413.92 767.061 z M 718.112 440.326 C 706.584 451.764 702.054 454.469 686.534 459.512 L 683.99 458.685 C 677.967 458.738 639.123 487.008 632.23 492.144 C 639.011 490.807 642.059 487.656 647.737 485.884 C 667.938 479.581 687.448 464.904 706.61 458.053 C 696.187 477.515 670.391 496.783 649.936 505.054 C 647.374 506.09 640.494 503.807 638.713 506.699 C 631.279 518.769 624.845 531.527 617.003 543.499 C 615.938 545.121 613.15 555.414 612.727 556.968 C 630.31 546.288 636.247 540.66 650.146 525.276 L 654.99 528.978 C 659.063 530.252 672.788 521.24 675.601 518.184 C 685.194 507.764 687.701 495.314 701.188 488.038 C 704.173 485.107 711.542 481.632 713.959 478.509 C 725.521 463.564 742.432 452.415 752.776 437.304 C 753.958 435.578 752.787 432.954 752.21 431.526 C 748.439 429.278 749.215 430.057 743.956 430.295 C 729.754 433.816 726.188 437.789 718.112 440.326 z M 796.369 423.151 C 803.95 420.866 811.549 418.561 819.171 416.419 C 836.951 411.421 856.087 411.491 874.439 409.603 C 880.086 409.276 884.379 409.208 890.022 409.296 C 897.402 407.243 899.043 407.353 902.93 401.029 C 902.296 390.892 879.731 389.596 872.643 389.104 C 862.865 388.425 801.991 409.363 797.306 413.827 C 796.37 417.752 796.449 419.046 796.369 423.151 z M 779.931 591.928 C 776.7 593.688 770.935 596.144 769.51 599.121 C 770.497 608.468 756.817 618.431 765.428 627.214 C 772.658 634.589 789.084 630.37 797.378 628.39 C 805.101 625.198 807.014 624.327 812.482 617.868 C 813.79 611.094 814.526 606.302 815.245 599.445 C 806.144 601.807 792.286 601.972 782.901 601.053 C 781.286 598.652 781.605 595.984 781.498 592.968 L 779.931 591.928 z M 752.864 793.277 C 747.881 798.884 743.808 802.165 743.326 809.611 C 746.438 816.338 752.752 813.859 758.763 812.574 C 767.238 810.377 772.351 807.995 779.423 802.921 L 779.792 801.122 C 782.587 787.853 799.352 765.398 773.754 767.002 C 769.331 770.256 768.205 771.455 764.496 775.554 C 760.06 776.341 758.127 776.204 754.92 779.045 C 752.425 783.125 753.146 788.009 752.864 793.277 z M 1005.04 494.02 C 1015.87 466.216 1019.27 474.869 1032.95 457.007 C 1025.75 455.155 1019.8 453.715 1012.22 454.137 C 1006.74 456.86 991.453 462.03 989.865 463.862 C 988.195 472.044 994.722 492.576 1002.57 495.997 C 1004.78 495.078 1004.02 495.817 1005.04 494.02 z M 805.843 401.501 C 792.458 404.506 782.473 411.922 777.014 413.357 C 772.271 416.807 766.387 422.554 768.116 428.866 L 770.563 430.052 C 775.369 429.923 779.19 427.452 783.614 425.258 C 785.108 407.13 794.024 412.804 805.843 401.501 z M 887.961 990.652 C 888.011 997.736 886.422 1011.44 890.249 1015.98 C 892.736 1016.52 892.974 1016.64 895.499 1016.81 C 898.168 1015.77 900.076 1015.54 901.056 1012.51 C 903.528 1004.86 905.459 993.172 898.594 987.459 L 896.71 986.991 L 887.961 990.652 z M 815.037 721.779 C 803.345 729.703 792.085 754.478 800.213 764.435 C 800.638 764.955 797.991 772.196 799.494 776.065 C 804.265 778.159 807.303 777.665 810.071 781.109 C 811.639 786.142 810.397 792.528 805.934 795.714 C 801.341 796.67 798.787 796.425 795.789 799.633 C 794.507 803.219 795.023 805.692 795.287 809.495 C 790.597 812.483 787.383 814.427 782.403 817.01 C 790.328 821.661 792.985 822.733 802.394 824.648 C 789.68 829.765 782.76 831.368 773.167 841.767 C 779.305 840.778 787.751 839.162 793.754 838.558 C 804.907 837.09 827.971 840.356 836.138 835.889 C 836.918 834.393 839.262 828.451 839.685 827.919 C 847.039 818.658 851.853 811.868 836.913 807.033 C 834.673 790.855 829.22 772.36 820.841 758.279 C 825.037 752.525 830.511 745.418 834.131 739.483 C 827.361 738.412 823.187 737.324 816.556 735.516 C 819.966 732.636 823.729 730.153 825.453 726.22 C 824.84 721.331 819.253 721.947 815.037 721.779 z M 997.46 968.502 C 999.901 963.867 1000.68 962.689 1004 958.638 C 1006.66 955.756 1008.4 954.516 1009.01 950.682 C 1008.31 947.426 1008.19 946.736 1006.91 943.529 L 1008.03 938.633 C 1004.04 932.476 979.757 933.765 972.405 933.471 C 974.6 945.118 989.245 959.449 997.46 968.502 z M 1159.04 467.717 C 1150.64 484.482 1143.34 486.233 1150.74 506.531 C 1160.32 532.784 1157.53 541.004 1188.79 545.934 C 1192.59 544.457 1192.83 545.162 1194.15 542.436 C 1192.04 538.57 1183.07 535.761 1178.65 531.834 C 1168.42 522.77 1160.77 500.452 1163.37 487.092 C 1165.3 477.153 1173.3 474.776 1159.04 467.717 z M 1059.61 1069.19 L 1058.38 1070.58 C 1062.56 1076.67 1080.24 1076.41 1086.79 1075.34 L 1088.74 1074.35 C 1085.44 1069.83 1065.34 1068.8 1059.61 1069.19 z M 1130.06 417.074 C 1144.7 426.68 1166.49 429.277 1183.46 427.689 C 1171.2 419.086 1144.29 415.95 1130.06 417.074 z M 876.507 412.852 C 865.31 414.266 860.155 416.77 849.529 419.098 C 842.64 420.607 830.135 419.723 823.425 422.46 C 816.758 425.18 806.221 430.323 800.487 434.587 C 794.399 439.114 801.546 445.815 795.89 451.783 C 783.096 465.283 765.322 474.582 751.498 486.554 C 745.802 491.487 740.76 503.849 733.32 509.451 C 716.768 521.911 701.542 524.251 686.678 539.87 C 667.672 559.511 652.035 582.151 640.396 606.879 C 644.358 614.532 644.646 616.299 646.004 624.541 C 663.941 611.968 688.318 588.306 708.313 576.844 C 713.085 574.108 728.579 574.846 735.449 572.355 C 743.04 569.601 754.11 561.678 761.184 560.657 C 777.711 558.273 796.892 559.501 812.561 552.35 C 824.986 546.679 831.09 529.002 841.898 520.261 C 845.969 516.968 856.6 511.55 859.616 508.499 C 869.661 498.337 880.07 488.624 890.322 478.705 C 896.211 473.006 900.845 467.114 907.336 461.633 C 917.687 452.894 938.727 447.436 947.063 439.951 C 943.416 436.384 929.527 436.827 924.24 436.692 L 927.368 435.373 C 931.736 433.514 941.27 429.928 941.722 425.254 C 943.42 407.729 913.826 416.923 904.492 417.217 C 900.244 417.35 901.504 413.676 894.216 412.227 C 886.711 411.944 882.724 412.871 876.507 412.852 z M 965.223 1032.64 L 934.626 1032.15 C 932.199 1035.1 932.666 1033.5 932.792 1036.99 C 936.83 1043.1 955.444 1050.5 962.482 1052.1 C 962.719 1044.75 962.341 1039.43 965.223 1032.64 z"/>
<path transform="translate(0,0)" fill="rgb(106,112,112)" fill-opacity="0.00784314" d="M 743.956 430.295 C 749.215 430.057 748.439 429.278 752.21 431.526 C 752.787 432.954 753.958 435.578 752.776 437.304 C 742.432 452.415 725.521 463.564 713.959 478.509 C 711.542 481.632 704.173 485.107 701.188 488.038 C 687.701 495.314 685.194 507.764 675.601 518.184 C 672.788 521.24 659.063 530.252 654.99 528.978 C 657.966 523.07 661.483 520.702 664.201 513.664 L 663.349 512.763 C 656.722 515.632 654.533 519.557 650.146 525.276 C 636.247 540.66 630.31 546.288 612.727 556.968 C 613.15 555.414 615.938 545.121 617.003 543.499 C 624.845 531.527 631.279 518.769 638.713 506.699 C 640.494 503.807 647.374 506.09 649.936 505.054 C 670.391 496.783 696.187 477.515 706.61 458.053 C 687.448 464.904 667.938 479.581 647.737 485.884 C 642.059 487.656 639.011 490.807 632.23 492.144 C 639.123 487.008 677.967 458.738 683.99 458.685 L 686.534 459.512 C 702.054 454.469 706.584 451.764 718.112 440.326 C 726.188 437.789 729.754 433.816 743.956 430.295 z"/>
<path transform="translate(0,0)" fill="rgb(34,91,127)" fill-opacity="0.988235" d="M 650.146 525.276 C 654.533 519.557 656.722 515.632 663.349 512.763 L 664.201 513.664 C 661.483 520.702 657.966 523.07 654.99 528.978 L 650.146 525.276 z"/>
<path transform="translate(0,0)" fill="rgb(210,243,248)" fill-opacity="0.0588235" d="M 517.498 600.41 C 522.763 593.602 531.308 582.132 538.449 577.455 C 533.23 586.266 523.625 594.272 519.305 602.972 L 517.498 600.41 z"/>
<path transform="translate(0,0)" fill="rgb(210,243,248)" fill-opacity="0.0156863" d="M 413.92 767.061 L 417.718 768.444 C 413.389 776 407.384 789.071 403.678 795.119 C 405.306 787.647 410.929 774.604 413.92 767.061 z"/>
<path transform="translate(0,0)" fill="rgb(14,61,112)" d="M 476.954 1445.32 C 453.957 1419.83 418.503 1360.91 403.113 1330.18 C 320.748 1166.43 307.726 976.424 366.978 802.966 C 423.945 632.276 557.255 482.757 717.928 402.614 C 881.982 321.083 1071.79 308.402 1245.23 367.385 C 1382.74 414.394 1502.07 503.295 1586.47 621.602 C 1597.36 636.928 1617.58 666.415 1625.8 682.997 C 1621.62 688.342 1608.62 701.19 1603.59 705.785 C 1591.09 683.855 1579.63 664.976 1564.92 644.289 C 1497.21 549.041 1404.31 469.59 1297.51 421.522 C 1287.36 416.957 1256.57 403.349 1246.27 401.605 C 1241.37 396.918 1215.43 390.085 1207.15 387.661 C 1118.82 361.855 1026 355.124 934.87 367.913 C 899.299 372.562 864.218 380.396 830.049 391.322 C 823.982 393.196 809.292 396.942 805.843 401.501 C 792.458 404.506 782.473 411.922 777.014 413.357 C 769.366 411.885 743.715 421.9 741.158 428.516 C 742.718 429.862 742.143 429.694 743.956 430.295 C 729.754 433.816 726.188 437.789 718.112 440.326 C 706.584 451.764 702.054 454.469 686.534 459.512 L 683.99 458.685 C 677.967 458.738 639.123 487.008 632.23 492.144 C 627.548 494.083 619.618 501.232 615.345 504.636 C 587.334 526.957 562.597 550.09 538.256 576.27 L 538.449 577.455 C 531.308 582.132 522.763 593.602 517.498 600.41 C 476.995 644.338 438.605 712.748 413.92 767.061 C 410.929 774.604 405.306 787.647 403.678 795.119 C 403.126 797.967 403.121 796.847 402.016 799.126 C 397.417 808.604 394.186 819.525 391.025 829.64 C 368.771 901.78 358.977 977.187 362.064 1052.62 C 362.571 1065.24 362.787 1083.86 366.422 1095.69 C 364.586 1105.86 372.031 1140.33 374.198 1151.76 C 394.1 1256.72 447.142 1366.57 517.286 1447.03 C 505.371 1447.06 488.83 1446.29 476.954 1445.32 z"/>
<path transform="translate(0,0)" fill="rgb(34,91,127)" d="M 683.99 458.685 C 694.864 454.201 709.343 438.325 718.112 440.326 C 706.584 451.764 702.054 454.469 686.534 459.512 L 683.99 458.685 z"/>
<path transform="translate(0,0)" fill="rgb(34,91,127)" d="M 1112.88 984.522 C 1115.82 985.097 1115.94 984.99 1118.73 986.048 C 1115.72 999.025 1098.81 996.388 1088.05 1002.71 C 1086.8 1000.93 1086.01 999.185 1085.66 997.037 C 1082.65 993.829 1078.5 993.616 1073.96 992.632 C 1069.87 994.191 1065.6 995.633 1061.46 997.093 C 1069.12 988.052 1080.13 991.987 1089.78 994.6 C 1095.79 992.804 1105.71 987.373 1112.88 984.522 z"/>
<path transform="translate(0,0)" fill="rgb(34,91,127)" d="M 1126.7 637.89 C 1129.29 644.367 1133.42 647.512 1136.96 653.299 C 1129.93 651.22 1124.48 650.024 1118.72 645.308 C 1122.94 645.777 1122.83 646.522 1125.53 644.74 C 1125.75 642.175 1126.01 640.414 1126.7 637.89 z"/>
<path transform="translate(0,0)" fill="rgb(34,91,127)" d="M 874.439 409.603 C 880.086 409.276 884.379 409.208 890.022 409.296 L 894.216 412.227 C 886.711 411.944 882.724 412.871 876.507 412.852 C 877.779 412.018 877.182 412.57 878.184 411.08 L 874.439 409.603 z"/>
<path transform="translate(0,0)" fill="rgb(14,61,112)" d="M 1538.12 809.675 C 1571.06 776.068 1603.65 742.117 1635.88 707.827 C 1651.93 691.056 1672.08 667.875 1689.23 653.952 C 1726.11 624.022 1782.44 588.729 1830.7 587.248 C 1883.84 585.618 1863.38 651.779 1851.07 678.482 C 1826.98 730.733 1793.55 764.37 1753.76 804.184 C 1728.57 830.632 1700.21 858.519 1675.44 885.173 C 1677.52 900.223 1679.52 919.255 1682.23 933.757 C 1718.23 906.525 1757.94 945.774 1756.62 980.63 C 1756.1 994.375 1709.77 1035.52 1696.5 1047.68 C 1701.97 1098.97 1707.96 1150.2 1714.49 1201.37 C 1716.87 1220.58 1723.85 1267.12 1723.05 1283.6 C 1710.5 1304.21 1693.89 1327.59 1680.08 1347.61 L 1601.99 1158.92 C 1597.23 1147.51 1578.62 1099.76 1572.9 1091.7 C 1564.78 1080.28 1532.71 1057 1520.09 1045.74 C 1503.16 1063.29 1484.74 1083.73 1467.77 1100.48 C 1428.35 1139.73 1384.38 1174.12 1336.81 1202.94 C 1339.37 1235.58 1342.85 1268.16 1345.5 1300.81 C 1346.64 1314.92 1349.1 1323.87 1338.6 1335.1 C 1328.03 1346.42 1318.04 1358.29 1306.6 1368.8 C 1299.69 1356.78 1292.86 1344.42 1286.37 1332.15 C 1273.19 1307.24 1258.31 1282.92 1245.47 1257.87 C 1227.67 1267.4 1222.81 1274.04 1203 1272.97 L 1201.91 1272.3 C 1180.07 1258.57 1197.82 1242.93 1196.03 1235.37 C 1199.09 1232.6 1201.7 1226.29 1203.6 1222.34 C 1164.85 1203.61 1125.88 1185.36 1086.69 1167.59 C 1092.71 1160.62 1123.05 1128.25 1130.65 1125.87 C 1146.73 1120.81 1194 1120.49 1212.33 1119.17 C 1230.01 1117.9 1251.3 1116.62 1267.97 1116.31 C 1303.87 1055.42 1351.83 1002.95 1402.04 953.502 C 1392.53 944.562 1381.66 935.176 1371.93 926.554 C 1365.83 921.147 1351.47 907.307 1344.92 903.807 C 1322.11 891.616 1291.91 881.829 1267.35 872.693 L 1158.31 831.435 C 1135.62 822.959 1106.9 813.168 1084.94 803.646 C 1100.26 792.714 1116.12 782.411 1131.68 771.939 C 1144.54 763.283 1150.32 758.887 1166.42 760.925 C 1235.02 769.61 1303.57 778.789 1372.19 787.437 C 1382.47 788.733 1393 789.807 1403.19 791.425 C 1409.85 783.327 1418.24 774.298 1425.4 766.626 C 1436.15 755.113 1450.9 736.003 1467.34 734.68 C 1489.89 732.866 1518.73 761.679 1519.7 783.875 C 1520.11 791.969 1516.69 799.687 1511.93 806.167 C 1520.34 807.1 1529.95 807.918 1538.12 809.675 z"/>
<path transform="translate(0,0)" fill="rgb(254,254,254)" d="M 1832.23 612.578 C 1836 613.12 1836.98 612.942 1839.72 615.592 C 1844.01 624.8 1837.34 645.882 1834.1 655.082 C 1815 709.231 1775.97 745.323 1737.39 785.46 L 1632.67 894.082 L 1509.49 1021.32 C 1475.57 1056.53 1440.31 1095.24 1402.7 1126.23 C 1365.64 1156.76 1320.76 1184.99 1279.54 1209.62 C 1262.65 1219.72 1238.38 1235.01 1220.77 1243.84 C 1226.3 1232.28 1230.77 1223.05 1237.12 1211.94 C 1213.13 1199.98 1189.01 1188.29 1164.75 1176.88 C 1153.56 1171.57 1139.69 1165.53 1128.96 1159.79 C 1132.58 1155.97 1136.44 1151.65 1140.39 1148.24 C 1153.36 1146.89 1165.85 1146.63 1178.81 1145.75 C 1183.62 1144.47 1210.11 1143.69 1216.32 1143.4 C 1237.82 1142.41 1260 1140.57 1281.45 1140.12 C 1288.81 1130.65 1294.67 1118.04 1302.45 1108.69 C 1310.89 1092.13 1340.79 1055.27 1353.38 1041.28 C 1377.33 1014.67 1403.79 987.448 1428.65 961.434 L 1541.76 842.687 L 1637.21 742.777 C 1656.37 722.602 1675.7 701.872 1695.4 682.284 C 1701.5 676.211 1733.02 650.145 1739.59 649.696 C 1748.12 667.964 1780.96 642.414 1783.41 679.022 C 1783.86 686.093 1781.45 694.888 1784.96 700.445 C 1788.33 702.859 1788.51 703.202 1792.48 703.552 C 1804.53 699.92 1806.7 668.065 1805.59 657.143 C 1798.05 636.45 1783.53 635.782 1764.36 633.698 C 1784.49 623.495 1809.49 613.563 1832.23 612.578 z"/>
<path transform="translate(0,0)" fill="rgb(142,208,233)" d="M 1832.23 612.578 C 1836 613.12 1836.98 612.942 1839.72 615.592 C 1844.01 624.8 1837.34 645.882 1834.1 655.082 C 1815 709.231 1775.97 745.323 1737.39 785.46 L 1632.67 894.082 L 1509.49 1021.32 C 1475.57 1056.53 1440.31 1095.24 1402.7 1126.23 C 1365.64 1156.76 1320.76 1184.99 1279.54 1209.62 C 1262.65 1219.72 1238.38 1235.01 1220.77 1243.84 C 1226.3 1232.28 1230.77 1223.05 1237.12 1211.94 C 1213.13 1199.98 1189.01 1188.29 1164.75 1176.88 C 1153.56 1171.57 1139.69 1165.53 1128.96 1159.79 C 1132.58 1155.97 1136.44 1151.65 1140.39 1148.24 C 1153.36 1146.89 1165.85 1146.63 1178.81 1145.75 C 1183.62 1144.47 1210.11 1143.69 1216.32 1143.4 C 1237.82 1142.41 1260 1140.57 1281.45 1140.12 C 1288.81 1130.65 1294.67 1118.04 1302.45 1108.69 C 1308.98 1111.17 1337.98 1094.36 1345.43 1098.53 L 1345.7 1100.69 C 1341.29 1110.27 1315.42 1139.27 1307.5 1149.09 C 1292.76 1167.39 1276.51 1186.22 1261.66 1204.58 C 1310.2 1168.86 1366.19 1113.71 1408.52 1070.79 C 1461.43 1017.15 1513.34 961.801 1565.79 907.619 L 1685.01 784.204 C 1717.15 751.24 1754.63 714.338 1783.41 679.022 C 1783.86 686.093 1781.45 694.888 1784.96 700.445 C 1788.33 702.859 1788.51 703.202 1792.48 703.552 C 1804.53 699.92 1806.7 668.065 1805.59 657.143 C 1798.05 636.45 1783.53 635.782 1764.36 633.698 C 1784.49 623.495 1809.49 613.563 1832.23 612.578 z"/>
<path transform="translate(0,0)" fill="rgb(208,35,51)" d="M 1178.81 1145.75 C 1183.62 1144.47 1210.11 1143.69 1216.32 1143.4 C 1237.82 1142.41 1260 1140.57 1281.45 1140.12 C 1272.67 1154.39 1263.75 1168.57 1254.67 1182.66 L 1163.71 1160.84 C 1168.65 1155.81 1173.67 1150.57 1178.81 1145.75 z"/>
<path transform="translate(0,0)" fill="rgb(254,254,254)" d="M 1764.36 633.698 C 1784.49 623.495 1809.49 613.563 1832.23 612.578 C 1826.51 626.84 1814.34 644.011 1805.59 657.143 C 1798.05 636.45 1783.53 635.782 1764.36 633.698 z"/>
<path transform="translate(0,0)" fill="rgb(142,208,233)" d="M 1634.68 928.089 L 1654.25 907.54 L 1678.7 1110.13 C 1685.21 1164.73 1691.5 1221.44 1699.33 1275.83 C 1697.47 1278.52 1695.56 1281.41 1693.52 1283.94 C 1692.47 1285.97 1687.39 1292.77 1685.8 1295.01 C 1677.66 1278.59 1668.99 1255.49 1661.75 1238.04 L 1618.9 1135.05 C 1614.06 1123.4 1598.05 1082.21 1591.47 1075.05 C 1578.57 1060.99 1552.97 1042.51 1537.46 1028.2 L 1634.68 928.089 z"/>
<path transform="translate(0,0)" fill="rgb(254,254,254)" d="M 1634.68 928.089 L 1654.25 907.54 L 1678.7 1110.13 C 1685.21 1164.73 1691.5 1221.44 1699.33 1275.83 C 1697.47 1278.52 1695.56 1281.41 1693.52 1283.94 C 1689.89 1277.15 1680.63 1214.45 1678.96 1204.18 C 1669.64 1148.22 1660.62 1092.2 1651.91 1036.14 C 1646.63 1002.15 1641.43 961.384 1634.68 928.089 z"/>
<path transform="translate(0,0)" fill="rgb(142,208,233)" d="M 1158.2 784.64 C 1203.27 788.76 1255.1 796.839 1300.56 802.96 L 1517.83 831.749 C 1511.25 838.87 1504.62 845.947 1497.94 852.979 C 1493.04 859.069 1479.85 871.769 1473.95 877.93 C 1455.63 896.904 1437.44 916.006 1419.38 935.234 C 1410.65 927.13 1362.86 884.089 1355.79 881.126 C 1289.75 853.476 1203.22 822.275 1137.64 797.753 C 1141.35 795.244 1145.08 792.766 1148.83 790.321 C 1151.92 788.389 1155 786.37 1158.2 784.64 z"/>
<path transform="translate(0,0)" fill="rgb(254,254,254)" d="M 1158.2 784.64 C 1203.27 788.76 1255.1 796.839 1300.56 802.96 L 1517.83 831.749 C 1511.25 838.87 1504.62 845.947 1497.94 852.979 C 1467.92 845.704 1426.48 840.121 1395.27 834.756 L 1229.76 805.309 C 1207.42 801.325 1169.89 795.885 1148.83 790.321 C 1151.92 788.389 1155 786.37 1158.2 784.64 z"/>
<path transform="translate(0,0)" fill="rgb(142,208,233)" d="M 1312.67 1217.92 C 1314.57 1220.4 1320.85 1305.38 1321.88 1317.52 L 1312.3 1327.54 L 1299.18 1303.91 L 1266.85 1245.44 C 1282.41 1236.75 1297.69 1227.57 1312.67 1217.92 z"/>
<path transform="translate(0,0)" fill="rgb(142,208,233)" d="M 1707.42 947.67 C 1713.93 951.253 1715.5 952.282 1721 957.265 C 1727.03 963.558 1730.24 967.055 1733.65 975.434 C 1724.6 986.791 1703.64 1007.89 1692.41 1017.83 C 1691.53 1009.06 1689.56 995.737 1689.07 987.369 C 1687.95 980.073 1687.28 974.124 1686.65 966.765 C 1693.03 960.377 1700.14 952.828 1707.42 947.67 z"/>
<path transform="translate(0,0)" fill="rgb(254,254,254)" d="M 1707.42 947.67 C 1713.93 951.253 1715.5 952.282 1721 957.265 C 1711.1 966.161 1698.51 979.934 1689.07 987.369 C 1687.95 980.073 1687.28 974.124 1686.65 966.765 C 1693.03 960.377 1700.14 952.828 1707.42 947.67 z"/>
<path transform="translate(0,0)" fill="rgb(142,208,233)" d="M 1432.14 795.49 C 1439.78 787.51 1460.08 764.395 1468.11 759.778 C 1474.1 759.573 1477.28 763.403 1481.78 767.292 C 1499.61 784.594 1498.36 785.179 1480.65 802.39 C 1471.25 800.929 1461.84 799.581 1452.41 798.345 L 1432.14 795.49 z"/>
<path transform="translate(0,0)" fill="rgb(254,254,254)" d="M 1432.14 795.49 C 1439.78 787.51 1460.08 764.395 1468.11 759.778 C 1474.1 759.573 1477.28 763.403 1481.78 767.292 C 1471.82 777.475 1462.02 787.827 1452.41 798.345 L 1432.14 795.49 z"/>
<path transform="translate(0,0)" fill="rgb(3,98,166)" d="M 309.643 1094.54 C 310.645 1105.65 311.867 1116.73 313.31 1127.78 C 314.647 1136.29 317.651 1152.73 318.11 1160.64 C 286.791 1215.83 260.149 1280.71 276.076 1345.83 C 285.53 1384.5 315.789 1416.71 349.852 1435.33 C 453.478 1492.29 608.056 1472.39 716.338 1442.23 C 830.596 1410.4 957.107 1345.94 1053.22 1276.87 C 1068.58 1265.92 1083.56 1254.44 1098.14 1242.47 C 1107.33 1234.8 1122.32 1221.06 1131.39 1214.59 C 1136.54 1216.87 1143.59 1219.74 1148.25 1222.52 C 1153.9 1225.16 1163.14 1229.75 1168.8 1231.87 C 1177.61 1233.04 1187.37 1234.04 1196.03 1235.37 C 1197.82 1242.93 1180.07 1258.57 1201.91 1272.3 L 1203 1272.97 C 1203.07 1281.7 1202.59 1287.24 1201.69 1295.97 C 1214.49 1299.75 1225.7 1295.18 1237.04 1290.19 C 1242.66 1300.88 1246.17 1307.44 1252.54 1317.73 C 1247.15 1321.37 1242.16 1325.14 1236.92 1329.06 C 1040.41 1476.09 797.669 1588.24 549.765 1598.84 C 446.718 1603.25 319.793 1582.49 243.291 1508.85 C 203.916 1471.24 181.218 1419.44 180.255 1365 C 178.522 1264.36 241.91 1164.56 309.643 1094.54 z"/>
<path transform="translate(0,0)" fill="rgb(142,208,233)" d="M 313.31 1127.78 C 314.647 1136.29 317.651 1152.73 318.11 1160.64 C 286.791 1215.83 260.149 1280.71 276.076 1345.83 C 285.53 1384.5 315.789 1416.71 349.852 1435.33 C 453.478 1492.29 608.056 1472.39 716.338 1442.23 C 830.596 1410.4 957.107 1345.94 1053.22 1276.87 C 1068.58 1265.92 1083.56 1254.44 1098.14 1242.47 C 1107.33 1234.8 1122.32 1221.06 1131.39 1214.59 C 1136.54 1216.87 1143.59 1219.74 1148.25 1222.52 C 1139.95 1229.6 1128.34 1241.9 1119.84 1249.81 C 1101 1267.18 1081.61 1283.95 1061.7 1300.07 C 939.119 1398.46 780.939 1480.41 625.311 1508.05 C 526.447 1525.61 400.698 1526.31 314.599 1466.83 C 276.974 1440.84 247.59 1397.81 240.792 1352.37 C 228.245 1268.51 266.542 1193.25 313.31 1127.78 z"/>
<path transform="translate(0,0)" fill="rgb(254,254,254)" d="M 1168.8 1231.87 C 1177.61 1233.04 1187.37 1234.04 1196.03 1235.37 C 1197.82 1242.93 1180.07 1258.57 1201.91 1272.3 L 1203 1272.97 C 1203.07 1281.7 1202.59 1287.24 1201.69 1295.97 C 1191.29 1301.55 1176.68 1314.66 1166.62 1322 C 1141.08 1340.74 1115.01 1358.73 1088.44 1375.96 C 947.521 1465.75 793.718 1529.57 626.952 1548.55 C 624.02 1548.27 623.269 1547.66 620.615 1546.38 C 791.056 1511.52 945.329 1432.17 1082.69 1326.59 C 1106.85 1308.02 1145.69 1277.35 1166.84 1256.06 C 1168.03 1249.63 1172.36 1236.57 1168.8 1231.87 z"/>
<path transform="translate(0,0)" fill="rgb(142,208,233)" d="M 589.233 1551.27 C 599.894 1549.69 609.758 1547.48 620.615 1546.38 C 623.269 1547.66 624.02 1548.27 626.952 1548.55 C 619.304 1550.03 596.379 1552.17 589.233 1551.27 z"/>
<path transform="translate(0,0)" fill="rgb(3,98,166)" d="M 1441.36 1157.81 C 1448.33 1151.43 1466.93 1133.36 1473.7 1130.51 C 1486.38 1125.17 1497.88 1121.27 1511.04 1114.9 C 1534.27 1128.83 1534.24 1138.06 1550.86 1152.16 C 1557.35 1146.97 1560.03 1141.93 1564.32 1134.94 C 1568.45 1168.6 1573.68 1198.67 1584.73 1230.89 C 1586.5 1236.08 1588.67 1250.92 1592.41 1253.93 C 1600.48 1249.34 1598.37 1236.65 1604.98 1232.39 C 1612.78 1238.4 1603.58 1253.07 1607.71 1261.46 C 1610.85 1261.55 1609.86 1257.49 1615.18 1256.56 C 1618.03 1259.01 1627.92 1284.45 1630.24 1289.97 C 1634.98 1301.29 1642.04 1316.92 1646.01 1328.31 C 1621.84 1373.35 1600.35 1408.84 1568.45 1449.63 C 1479.42 1562.74 1357.97 1645.98 1220.35 1688.21 C 1046.47 1740.45 858.928 1721.15 699.331 1634.58 C 688.092 1628.52 673.57 1620.35 662.851 1613.37 C 679.757 1610.33 696.618 1607.04 713.428 1603.51 C 757.803 1593.59 801.619 1581.32 844.693 1566.75 C 875.935 1555.94 904.187 1543.97 934.455 1532.82 C 937.792 1541.03 946.861 1561.96 948.324 1569.27 C 936.26 1582.65 931.858 1588.96 933.113 1607.8 C 941.238 1620.57 948.207 1623.04 957.209 1633.96 C 962.622 1640.52 966.712 1654.19 973.96 1659.56 C 989.063 1670.74 995.692 1670.79 1008.84 1685.3 C 1030.7 1688.68 1073.88 1684.63 1094.84 1678.23 C 1106.23 1674.56 1123.87 1667.76 1134.07 1661.32 C 1137.31 1659.27 1142.05 1651.02 1145.9 1649.02 C 1153.8 1644.91 1167.29 1643.48 1172.86 1636.44 C 1176.95 1631.26 1174.83 1622.76 1173.9 1616.47 C 1189.79 1605.67 1226.41 1590.93 1235.84 1579.07 C 1255.22 1555.55 1226.69 1517.18 1241.19 1496.48 C 1276.81 1445.63 1337.72 1419.45 1363.68 1360.62 C 1367.98 1350.88 1382.24 1325.32 1378.6 1313.89 L 1371.45 1315.33 C 1369.8 1309.57 1368.49 1291.03 1367.85 1284.15 C 1385.61 1272.41 1400.94 1254.71 1419.1 1242.12 C 1434.7 1231.3 1443.53 1208.98 1451.66 1192.79 C 1461.71 1172.77 1467.32 1167.64 1441.36 1157.81 z M 1265.52 1599.6 C 1259.58 1607.73 1237.98 1622.4 1252.27 1630.87 C 1283.1 1630.37 1297.51 1600.95 1315.57 1580.03 C 1320.54 1574.27 1323.4 1564.98 1330.3 1561.38 C 1337.29 1557.9 1335.72 1540.46 1330.86 1536.7 C 1314.86 1552.27 1301.99 1564.94 1281.6 1574.52 C 1267.93 1580.95 1267.27 1585.55 1265.52 1599.6 z"/>
<path transform="translate(0,0)" fill="rgb(14,61,112)" d="M 1630.24 1289.97 C 1634.98 1301.29 1642.04 1316.92 1646.01 1328.31 C 1621.84 1373.35 1600.35 1408.84 1568.45 1449.63 C 1479.42 1562.74 1357.97 1645.98 1220.35 1688.21 C 1046.47 1740.45 858.928 1721.15 699.331 1634.58 C 688.092 1628.52 673.57 1620.35 662.851 1613.37 C 679.757 1610.33 696.618 1607.04 713.428 1603.51 C 757.803 1593.59 801.619 1581.32 844.693 1566.75 C 875.935 1555.94 904.187 1543.97 934.455 1532.82 C 937.792 1541.03 946.861 1561.96 948.324 1569.27 C 936.26 1582.65 931.858 1588.96 933.113 1607.8 C 941.238 1620.57 948.207 1623.04 957.209 1633.96 C 962.622 1640.52 966.712 1654.19 973.96 1659.56 C 989.063 1670.74 995.692 1670.79 1008.84 1685.3 C 1030.7 1688.68 1073.88 1684.63 1094.84 1678.23 L 1097 1680.62 C 1104.8 1683.64 1137.84 1676.6 1147.02 1674.81 C 1315.16 1641.66 1464.2 1545.34 1563.5 1405.67 C 1589.04 1369.35 1611.16 1331.85 1629.23 1291.36 C 1629.57 1290.89 1629.9 1290.43 1630.24 1289.97 z"/>
<path transform="translate(0,0)" fill="rgb(3,98,166)" d="M 713.428 1603.51 C 757.803 1593.59 801.619 1581.32 844.693 1566.75 C 875.935 1555.94 904.187 1543.97 934.455 1532.82 C 937.792 1541.03 946.861 1561.96 948.324 1569.27 C 936.26 1582.65 931.858 1588.96 933.113 1607.8 C 941.238 1620.57 948.207 1623.04 957.209 1633.96 C 962.622 1640.52 966.712 1654.19 973.96 1659.56 C 989.063 1670.74 995.692 1670.79 1008.84 1685.3 C 994.857 1687.13 973.221 1684.69 958.853 1683.15 C 874.406 1674.07 789.98 1649.93 715.687 1608.51 C 713.299 1607.18 713.653 1605.75 713.428 1603.51 z"/>
<path transform="translate(0,0)" fill="rgb(3,98,166)" d="M 1146.78 921.685 C 1159.44 924.718 1157.51 935.269 1167.57 930.987 C 1170.16 929.882 1172.75 926.652 1175.54 925.662 C 1178.63 923.897 1184.2 923.805 1185.06 920.931 C 1180.06 918.171 1162.88 913.745 1171.99 905.457 C 1177.9 900.08 1199.79 889.911 1207.48 890.408 L 1207.48 892.271 C 1205.76 893.681 1199.25 898.294 1199.91 900.456 C 1202.58 909.259 1198.43 913.906 1193.22 920.824 C 1202.33 927.219 1216.64 933.669 1226.3 939.155 C 1269.79 963.857 1244.45 976.196 1209.49 975.979 C 1196.6 975.899 1184.28 968.281 1173.27 967.992 C 1162.96 967.721 1142.8 979.559 1132.57 982.728 C 1127.98 984.376 1122.63 984.544 1118.73 986.048 C 1115.94 984.99 1115.82 985.097 1112.88 984.522 C 1107.27 977.921 1102.04 972.349 1103.24 962.791 C 1104.37 953.839 1108.39 939.386 1114.58 932.635 C 1123.43 922.985 1115.85 911.939 1133.41 905.725 C 1142.99 907.835 1143.31 911.148 1155.39 912.33 L 1146.78 921.685 z"/>
<path transform="translate(0,0)" fill="rgb(3,98,166)" d="M 1290.66 907.596 C 1306.39 913.677 1326.04 918.002 1338.62 928.891 C 1347.51 936.59 1354.95 945.786 1364.82 952.382 L 1366.02 953.175 C 1360.32 962.686 1353.51 969.977 1346 978.07 L 1330.88 993.622 C 1331.12 988.101 1334.82 970.64 1334.39 967.937 C 1333.93 965.023 1291.07 925.283 1290.66 907.596 z"/>
<path transform="translate(0,0)" fill="rgb(34,91,127)" d="M 1234.53 502.517 C 1251.1 523.742 1300.01 542.713 1302.41 571.854 L 1301.58 573.591 C 1293.76 574.268 1291.07 557.585 1283.89 550.677 C 1267.9 535.299 1246.52 522.82 1230.95 507.632 L 1234.53 502.517 z"/>
<path transform="translate(0,0)" fill="rgb(34,91,127)" d="M 1243.53 490.137 C 1248.25 492.267 1253.96 494.357 1257.67 497.748 L 1257.06 498.845 C 1251.6 499.624 1247.29 498.634 1241.83 497.844 C 1243.87 494.95 1243.52 493.686 1243.53 490.137 z"/>
</svg>