<svg viewBox="0 0 600 400" xmlns="http://www.w3.org/2000/svg">
  <defs>
    <linearGradient id="festBg" x1="0%" y1="0%" x2="100%" y2="100%">
      <stop offset="0%" style="stop-color:#ff6b6b"/>
      <stop offset="100%" style="stop-color:#feca57"/>
    </linearGradient>
  </defs>
  <rect width="600" height="400" fill="url(#festBg)"/>
  <!-- Sun -->
  <circle cx="300" cy="120" r="60" fill="#fff" opacity="0.9"/>
  <g stroke="#fff" stroke-width="3" opacity="0.7">
    <line x1="300" y1="40" x2="300" y2="20"/>
    <line x1="350" y1="70" x2="370" y2="50"/>
    <line x1="380" y1="120" x2="400" y2="120"/>
    <line x1="350" y1="170" x2="370" y2="190"/>
    <line x1="250" y1="70" x2="230" y2="50"/>
    <line x1="220" y1="120" x2="200" y2="120"/>
    <line x1="250" y1="170" x2="230" y2="190"/>
  </g>
  <!-- Dancing figures -->
  <circle cx="150" cy="280" r="20" fill="#fff"/>
  <line x1="150" y1="300" x2="150" y2="350" stroke="#fff" stroke-width="4"/>
  <line x1="150" y1="320" x2="120" y2="300" stroke="#fff" stroke-width="3"/>
  <line x1="150" y1="320" x2="180" y2="340" stroke="#fff" stroke-width="3"/>
  <circle cx="300" cy="280" r="20" fill="#fff"/>
  <line x1="300" y1="300" x2="300" y2="350" stroke="#fff" stroke-width="4"/>
  <line x1="300" y1="320" x2="330" y2="300" stroke="#fff" stroke-width="3"/>
  <line x1="300" y1="320" x2="270" y2="340" stroke="#fff" stroke-width="3"/>
  <circle cx="450" cy="280" r="20" fill="#fff"/>
  <line x1="450" y1="300" x2="450" y2="350" stroke="#fff" stroke-width="4"/>
  <line x1="450" y1="320" x2="420" y2="300" stroke="#fff" stroke-width="3"/>
  <line x1="450" y1="320" x2="480" y2="340" stroke="#fff" stroke-width="3"/>
  <!-- Text -->
  <text x="300" y="220" text-anchor="middle" font-family="Georgia, serif" font-size="28" fill="#fff">Dita e Veres</text>
</svg>
